<?xml version="1.0" encoding="iso-8859-1"?>
<!-- Generator: Adobe Illustrator 19.0.0, SVG Export Plug-In . SVG Version: 6.00 Build 0)  -->
<svg version="1.1" id="Layer_1" xmlns="http://www.w3.org/2000/svg" xmlns:xlink="http://www.w3.org/1999/xlink" x="0px" y="0px"
	 viewBox="0 0 512 512" style="enable-background:new 0 0 512 512;" xml:space="preserve">
<circle style="fill:#FBAC43;" cx="264" cy="248" r="184"/>
<g>
	<path style="fill:#F79220;" d="M363.128,93.016c18.344,28.616,29.016,62.616,29.016,99.12c0,101.608-82.392,184-184,184
		c-36.504,0-70.504-10.672-99.12-29.016C141.728,398.152,198.896,432,264,432c101.608,0,184-82.392,184-184
		C448,182.896,414.152,125.728,363.128,93.016z"/>
	<circle style="fill:#F79220;" cx="208" cy="256" r="40"/>
</g>
<path style="fill:#E48225;" d="M208,224c20.72,0,37.56,15.816,39.6,36c0.128-1.336,0.4-2.632,0.4-4c0-22.088-17.912-40-40-40
	s-40,17.912-40,40c0,1.368,0.272,2.664,0.4,4C170.44,239.816,187.28,224,208,224z"/>
<circle style="fill:#F79220;" cx="336" cy="216" r="24"/>
<circle style="fill:#E48225;" cx="312" cy="384" r="24"/>
<path style="fill:#D57528;" d="M312,368c11.88,0,21.688,8.656,23.592,20c0.224-1.312,0.408-2.624,0.408-4c0-13.248-10.752-24-24-24
	s-24,10.752-24,24c0,1.376,0.184,2.688,0.408,4C290.312,376.656,300.12,368,312,368z"/>
<circle style="fill:#F79220;" cx="360" cy="296" r="24"/>
<g>
	<path style="fill:#E48225;" d="M360,280c11.88,0,21.688,8.656,23.592,20c0.224-1.312,0.408-2.624,0.408-4c0-13.248-10.752-24-24-24
		s-24,10.752-24,24c0,1.376,0.184,2.688,0.408,4C338.312,288.656,348.12,280,360,280z"/>
	<path style="fill:#E48225;" d="M336,200c11.88,0,21.688,8.664,23.592,20c0.224-1.312,0.408-2.632,0.408-4c0-13.256-10.752-24-24-24
		s-24,10.744-24,24c0,1.368,0.184,2.688,0.408,4C314.312,208.664,324.12,200,336,200z"/>
	<circle style="fill:#E48225;" cx="424" cy="240" r="16"/>
</g>
<path style="fill:#D57528;" d="M424,232c7.448,0,13.648,5.112,15.44,12c0.328-1.288,0.56-2.608,0.56-4c0-8.832-7.168-16-16-16
	s-16,7.168-16,16c0,1.392,0.232,2.712,0.56,4C410.352,237.112,416.552,232,424,232z"/>
<circle style="fill:#F79220;" cx="224" cy="136" r="16"/>
<path style="fill:#E48225;" d="M224,128c7.448,0,13.648,5.112,15.432,12c0.336-1.288,0.568-2.608,0.568-4c0-8.832-7.168-16-16-16
	s-16,7.168-16,16c0,1.392,0.232,2.712,0.568,4C210.352,133.112,216.552,128,224,128z"/>
<path style="fill:#E2E5E7;" d="M149.336,111.168C141.6,92.864,123.424,80,102.224,80C81.112,80,62.992,92.76,55.2,110.96
	c-1.32-0.272-2.696-0.408-4.088-0.408c-11.296,0-20.448,9.112-20.448,20.36C13.736,130.912,0,144.592,0,161.464
	C0,178.328,13.736,192,30.664,192h112.448C165.688,192,184,173.768,184,151.28C184,130.912,168.936,114.184,149.336,111.168z"/>
<g>
	<path style="fill:#D6D9DB;" d="M143.112,130.912c0,26.368-20.208,47.808-46,50.4c1.704,0.168,3.352,0.504,5.112,0.504
		c28.224,0,51.112-22.792,51.112-50.912C153.336,102.8,130.448,80,102.224,80c-1.752,0-3.4,0.344-5.112,0.512
		C122.904,83.104,143.112,104.544,143.112,130.912z"/>
	<path style="fill:#D6D9DB;" d="M53.576,110.8c4.768,5.384,7.76,12.376,7.76,20.112c0,7.744-2.992,14.728-7.76,20.12
		c10.12-1.232,17.976-9.712,17.976-20.12C71.552,120.504,63.688,112.024,53.576,110.8z"/>
	<path style="fill:#D6D9DB;" d="M149.336,111.168c1.44,3.4,2.408,7.024,3.088,10.752c16.376,3.856,28.904,17.488,31.056,34.44
		c0.224-1.68,0.52-3.344,0.52-5.08C184,130.912,168.936,114.184,149.336,111.168z"/>
</g>
<path style="fill:#E2E5E7;" d="M468.296,344.08c-9.752-23.552-32.672-40.08-59.408-40.08c-26.624,0-49.472,16.408-59.288,39.8
	c-1.664-0.344-3.384-0.512-5.16-0.512c-14.24,0-25.784,11.72-25.784,26.168c-21.352,0-38.664,17.584-38.664,39.272
	C280,430.424,297.312,448,318.664,448h141.784C488.904,448,512,424.544,512,395.64C512,369.456,493.016,347.944,468.296,344.08z"/>
<g>
	<path style="fill:#D6D9DB;" d="M460.448,369.456c0,33.904-25.48,61.472-58.008,64.8c2.168,0.216,4.24,0.656,6.456,0.656
		c35.592,0,64.44-29.304,64.44-65.456c0-36.144-28.84-65.456-64.44-65.456c-2.208,0-4.288,0.44-6.456,0.656
		C434.968,307.992,460.448,335.552,460.448,369.456z"/>
	<path style="fill:#D6D9DB;" d="M347.552,343.592c6.008,6.92,9.784,15.904,9.784,25.856s-3.776,18.936-9.784,25.864
		c12.76-1.584,22.664-12.488,22.664-25.864C370.216,356.08,360.312,345.168,347.552,343.592z"/>
	<path style="fill:#D6D9DB;" d="M468.296,344.08c1.816,4.376,3.048,9.024,3.888,13.832c20.656,4.952,36.464,22.488,39.168,44.28
		c0.272-2.176,0.648-4.32,0.648-6.552C512,369.456,493.016,347.944,468.296,344.08z"/>
</g>
<g>
</g>
<g>
</g>
<g>
</g>
<g>
</g>
<g>
</g>
<g>
</g>
<g>
</g>
<g>
</g>
<g>
</g>
<g>
</g>
<g>
</g>
<g>
</g>
<g>
</g>
<g>
</g>
<g>
</g>
</svg>
